<?xml version="1.0" encoding="iso-8859-1"?>
<!-- Generator: Adobe Illustrator 17.1.0, SVG Export Plug-In . SVG Version: 6.00 Build 0)  -->
<!DOCTYPE svg PUBLIC "-//W3C//DTD SVG 1.1//EN" "http://www.w3.org/Graphics/SVG/1.1/DTD/svg11.dtd">
<svg version="1.1" id="Layer_1" xmlns="http://www.w3.org/2000/svg" xmlns:xlink="http://www.w3.org/1999/xlink" x="0px" y="0px"
	 viewBox="0 0 40 40" style="enable-background:new 0 0 40 40;" xml:space="preserve">
<g>
	<path style="fill:#FFFFFF;" d="M33.574,20.651h-1.927c0-6.287-5.119-11.406-11.408-11.406V7.318
		C27.596,7.318,33.574,13.3,33.574,20.651L33.574,20.651z M20.239,10.645v1.927c4.458,0,8.079,3.622,8.079,8.079h1.927
		C30.245,15.131,25.759,10.645,20.239,10.645L20.239,10.645z M19.855,1.554c-10.424,0-18.898,8.476-18.898,18.9
		s8.474,18.898,18.898,18.898c0.645,0,1.164-0.519,1.164-1.164c0-0.644-0.519-1.169-1.164-1.169c-9.135,0-16.565-7.43-16.565-16.565
		c0-9.137,7.43-16.567,16.565-16.567c9.137,0,16.567,7.43,16.567,16.567c0,3.818-2.029,7.604-4.939,9.203
		c-1.056,0.581-2.203,0.869-3.424,0.881c0.735-0.435,1.368-1.028,1.843-1.767c0.09-0.142,0.214-0.266,0.276-0.418
		c0.379-0.91,0.412-1.95,0.639-2.916c0.282-1.227-5.391-3.633-5.882-2.096c-0.175,0.57-0.451,2.366-0.807,2.842
		c-0.323,0.424-1.102,0.226-1.594-0.192c-1.294-1.102-2.735-2.724-4.001-4.001c-0.033-0.033-0.072-0.074-0.107-0.107
		c-0.033-0.035-0.074-0.074-0.107-0.107c-1.277-1.266-2.899-2.706-4.001-4.001c-0.418-0.492-0.616-1.277-0.192-1.594
		c0.476-0.362,2.272-0.626,2.842-0.807c1.538-0.492-0.869-6.165-2.102-5.882c-0.96,0.227-2,0.26-2.91,0.639
		c-0.158,0.068-0.276,0.187-0.418,0.276c-3.237,2.051-3.655,7.04-0.49,10.752c1.203,1.417,2.457,2.796,3.75,4.135l-0.006,0.006
		c0.035,0.035,0.074,0.068,0.108,0.107c0.039,0.035,0.072,0.068,0.101,0.108l0.012-0.006c1.339,1.293,2.932,3.198,5.514,4.921
		c5.447,3.633,9.623,2.622,12.08,1.271c4.248-2.339,6.147-7.333,6.147-11.243C38.754,10.03,30.274,1.554,19.855,1.554L19.855,1.554z
		 M19.855,1.554"/>
</g>
</svg>
