<?xml version="1.0" encoding="iso-8859-1"?>
<!-- Generator: Adobe Illustrator 17.1.0, SVG Export Plug-In . SVG Version: 6.00 Build 0)  -->
<!DOCTYPE svg PUBLIC "-//W3C//DTD SVG 1.1//EN" "http://www.w3.org/Graphics/SVG/1.1/DTD/svg11.dtd">
<svg version="1.1" id="Layer_1" xmlns="http://www.w3.org/2000/svg" xmlns:xlink="http://www.w3.org/1999/xlink" x="0px" y="0px"
	 viewBox="0 0 40 40" style="enable-background:new 0 0 40 40;" xml:space="preserve">
<g>
	<path style="fill:#FFFFFF;" d="M34.417,6.291H5.661c-2.567,0-4.654,2.087-4.654,4.654v19.654c0,2.567,2.087,4.653,4.654,4.653
		h28.748c2.567,0,4.654-2.087,4.654-4.653V10.953C39.071,8.386,36.984,6.291,34.417,6.291L34.417,6.291z M36.945,30.599
		c0,1.394-1.134,2.528-2.528,2.528H5.661c-1.394,0-2.527-1.134-2.527-2.528V10.953c0-1.394,1.134-2.527,2.527-2.527h28.748
		c1.394,0,2.528,1.134,2.528,2.527v19.646H36.945z M36.945,30.599"/>
	<path style="fill:#FFFFFF;" d="M25.008,20.528l9.307-8.347c0.433-0.394,0.473-1.063,0.079-1.504
		C34,10.244,33.33,10.205,32.89,10.599l-12.835,11.52l-2.504-2.237c-0.008-0.008-0.015-0.015-0.015-0.023
		c-0.055-0.055-0.11-0.102-0.173-0.15L7.173,10.591c-0.441-0.394-1.11-0.355-1.504,0.087c-0.394,0.441-0.354,1.11,0.087,1.504
		l9.418,8.417l-9.378,8.78c-0.425,0.402-0.449,1.071-0.047,1.504c0.213,0.22,0.496,0.339,0.779,0.339c0.26,0,0.52-0.095,0.725-0.284
		l9.52-8.905l2.582,2.307c0.205,0.181,0.457,0.268,0.709,0.268c0.252,0,0.512-0.094,0.709-0.275l2.654-2.378l9.465,8.992
		c0.205,0.197,0.472,0.291,0.732,0.291c0.283,0,0.559-0.11,0.772-0.331c0.402-0.425,0.386-1.102-0.039-1.504L25.008,20.528z
		 M25.008,20.528"/>
</g>
</svg>
