<?xml version="1.0" encoding="iso-8859-1"?>
<!-- Generator: Adobe Illustrator 17.1.0, SVG Export Plug-In . SVG Version: 6.00 Build 0)  -->
<!DOCTYPE svg PUBLIC "-//W3C//DTD SVG 1.1//EN" "http://www.w3.org/Graphics/SVG/1.1/DTD/svg11.dtd">
<svg version="1.1" id="Layer_1" xmlns="http://www.w3.org/2000/svg" xmlns:xlink="http://www.w3.org/1999/xlink" x="0px" y="0px"
	 viewBox="0 0 40 40" style="enable-background:new 0 0 40 40;" xml:space="preserve">
<g>
	<path style="fill:#FFFFFF;" d="M19.348,1.455c-8.332,0-15.114,6.783-15.114,15.114c0,0.948,0.087,1.905,0.269,2.838
		c0.008,0.055,0.04,0.222,0.103,0.506c0.229,1.02,0.569,2.024,1.012,2.98c1.628,3.834,5.209,9.723,13.067,16.031
		c0.198,0.158,0.435,0.237,0.672,0.237c0.237,0,0.474-0.079,0.672-0.237c7.85-6.308,11.439-12.197,13.067-16.031
		c0.443-0.957,0.783-1.953,1.012-2.98c0.063-0.284,0.095-0.451,0.103-0.506c0.174-0.933,0.269-1.889,0.269-2.838
		C34.463,8.237,27.68,1.455,19.348,1.455L19.348,1.455z M32.091,19.036c0,0.015-0.008,0.031-0.008,0.047
		c-0.008,0.04-0.032,0.158-0.071,0.34v0.016c-0.198,0.885-0.49,1.747-0.878,2.577c-0.008,0.008-0.008,0.024-0.016,0.032
		c-1.478,3.502-4.719,8.846-11.77,14.672c-7.051-5.826-10.292-11.17-11.771-14.672c-0.008-0.008-0.008-0.024-0.016-0.032
		c-0.379-0.822-0.672-1.691-0.877-2.577v-0.016c-0.048-0.182-0.063-0.3-0.071-0.34c0-0.016-0.008-0.032-0.008-0.055
		c-0.158-0.814-0.237-1.636-0.237-2.466c0-7.154,5.826-12.98,12.98-12.98c7.154,0,12.98,5.826,12.98,12.98
		C32.328,17.399,32.249,18.229,32.091,19.036L32.091,19.036z M32.091,19.036"/>
	<path style="fill:#FFFFFF;" d="M19.348,7.138c-5.288,0-9.597,4.308-9.597,9.597c0,5.288,4.308,9.597,9.597,9.597
		c5.288,0,9.596-4.308,9.596-9.597C28.945,11.447,24.637,7.138,19.348,7.138L19.348,7.138z M19.348,24.197
		c-4.118,0-7.462-3.352-7.462-7.462c0-4.111,3.352-7.462,7.462-7.462c4.11,0,7.462,3.352,7.462,7.462
		C26.811,20.845,23.467,24.197,19.348,24.197L19.348,24.197z M19.348,24.197"/>
</g>
</svg>
